<svg width="27" height="27" viewBox="0 0 27 27" fill="none" xmlns="http://www.w3.org/2000/svg">
<path fill-rule="evenodd" clip-rule="evenodd" d="M13.3065 0C12.1306 0 11.1774 0.9532 11.1774 2.12903V11.1774H2.12903C0.9532 11.1774 0 12.1306 0 13.3065C0 14.4823 0.9532 15.4355 2.12903 15.4355H11.1774V24.4839C11.1774 25.6597 12.1306 26.6129 13.3065 26.6129C14.4823 26.6129 15.4355 25.6597 15.4355 24.4839V15.4355H24.4839C25.6597 15.4355 26.6129 14.4823 26.6129 13.3065C26.6129 12.1306 25.6597 11.1774 24.4839 11.1774H15.4355V2.12903C15.4355 0.9532 14.4823 0 13.3065 0Z" fill="#D5F5FF"/>
</svg>
